<?xml version="1.0" encoding="UTF-8" standalone="no"?>
<!-- Created with Inkscape (http://www.inkscape.org/) -->

<svg
   width="180"
   height="180"
   viewBox="0 0 180 180"
   version="1.1"
   id="svg5"
   inkscape:export-filename="icon-alienflag.svg"
   inkscape:export-xdpi="96"
   inkscape:export-ydpi="96"
   xmlns:inkscape="http://www.inkscape.org/namespaces/inkscape"
   xmlns:sodipodi="http://sodipodi.sourceforge.net/DTD/sodipodi-0.dtd"
   xmlns="http://www.w3.org/2000/svg"
   xmlns:svg="http://www.w3.org/2000/svg">
  <sodipodi:namedview
     id="namedview7"
     pagecolor="#ffffff"
     bordercolor="#000000"
     borderopacity="0.25"
     inkscape:showpageshadow="2"
     inkscape:pageopacity="0.0"
     inkscape:pagecheckerboard="0"
     inkscape:deskcolor="#d1d1d1"
     inkscape:document-units="px"
     showgrid="false"
     inkscape:zoom="3.1584103"
     inkscape:cx="1.1081524"
     inkscape:cy="68.863757"
     inkscape:window-width="1920"
     inkscape:window-height="991"
     inkscape:window-x="-9"
     inkscape:window-y="-9"
     inkscape:window-maximized="1"
     inkscape:current-layer="layer1" />
  <defs
     id="defs2" />
  <g
     inkscape:label="Camada 1"
     inkscape:groupmode="layer"
     id="layer1">
    <path
       style="fill:#a7d8fd;fill-opacity:1;stroke:none;stroke-width:0.368699"
       d="m 123.70903,3.3174738 v 9.6297102 c 1.07428,0 2.91751,0.337334 3.81602,-0.380668 1.14476,-0.914902 1.14476,-7.9534807 0,-8.8683835 -0.89851,-0.717974 -2.74174,-0.3806587 -3.81602,-0.3806587 m -26.059272,8.1482132 4.404382,8.148223 c 5.92022,-1.891425 1.58667,-6.257134 -0.36703,-10.0000891 l -4.037352,1.8518661 m 52.485542,-1.8518661 -4.40438,8.1482231 4.03736,1.851866 4.40438,-7.407475 -4.03736,-2.5926141 M 111.96401,106.6517 v 10.37048 h 27.8944 V 106.6517 l 4.77142,-0.37036 c -0.64268,-2.72447 -1.26002,-8.547479 0.0104,-11.111211 2.65253,-5.353752 9.36299,-9.18638 12.92539,-14.074205 5.89931,-8.094147 8.50229,-18.154232 7.5557,-28.148392 -2.91937,-30.831525 -41.03454,-46.853308 -64.53521,-26.555749 -9.005485,7.777996 -14.582537,19.301608 -14.308728,31.370606 0.08775,3.875967 2.045103,8.092664 1.889843,11.818627 -0.07408,1.780385 -3.164547,3.69003 -4.115531,5.218555 -3.132612,5.0356 -2.663909,11.624565 0.946216,16.294975 3.298878,4.267064 9.042196,5.848932 14.120077,4.657809 1.724313,-0.404439 5.015853,-3.1141 6.584913,-2.204081 4.10196,2.379261 -1.00567,10.258236 2.07813,12.722686 0.96163,0.76852 3.02875,0.38074 4.18309,0.38074 m 20.55377,-15.185306 0.36702,-14.074212 V 50.725295 h 6.60657 v -4.44449 h -27.1604 v 4.44449 c 1.51731,0 5.56349,-0.722226 6.59631,0.593698 1.48464,1.891505 0.3773,8.143046 0.3773,10.517513 v 29.629896 c -2.60958,0 -6.34744,0.692223 -8.80876,-0.223339 -2.76559,-1.028897 -5.29259,-4.746336 -7.34062,-6.813771 C 94.603388,75.796242 89.920792,65.299124 91.105583,52.947532 92.70656,36.252754 107.67964,21.863299 124.44307,21.836155 c 15.83815,-0.02561 30.71395,9.160594 35.17816,25.185399 3.84614,13.806782 -0.73478,27.091347 -10.58703,37.037364 -2.14199,2.16263 -4.81877,6.108952 -7.70768,7.184145 -2.46129,0.915572 -6.19916,0.223339 -8.80875,0.223339 m -6.60658,-64.815395 v 4.444481 l 4.03736,0.370378 0.73405,-4.444482 -4.77141,-0.370377 m -44.777874,1.481495 -1.835154,4.074112 8.074704,4.444483 1.835155,-4.074114 -8.074705,-4.444481 m 54.320704,0 c -0.34685,1.075677 -1.2736,2.784655 -0.84528,3.919219 0.45,1.192751 2.76411,1.744013 3.78154,2.329983 2.55491,1.47164 4.94575,3.345626 6.86348,5.602756 5.54807,6.530428 7.75797,15.347911 5.61559,23.703908 l 4.4044,1.111122 c 3.65049,-14.953097 -4.48661,-32.435065 -19.81973,-36.666988 m 27.16036,4.444481 1.83514,4.074114 8.07471,-4.444483 -1.83515,-4.074112 -8.0747,4.444481 m -19.08566,87.037807 c -4.29206,0 -6.53794,-0.41149 -8.80876,3.70375 h -0.36703 c -6.61942,-6.75081 -18.70394,-2.75521 -23.07969,4.44446 -2.8489,4.68746 -2.61363,10.21416 -0.77738,15.18533 -11.445876,2.67223 -21.26545,5.01559 -33.03286,2.04632 C 53.454354,138.93608 35.647082,115.84105 36.736943,90.725647 37.130654,81.652218 40.329776,73.97957 44.063112,65.910605 57.170523,70.863988 72.252254,57.383132 69.021271,43.68819 l 9.909868,-2.962984 v -5.925977 c -37.610581,5.110787 -57.512223,49.795994 -42.462412,82.963691 10.334367,22.77538 32.712212,34.56142 56.776651,34.44439 10.024372,-0.0485 20.133152,-3.7319 28.628462,-8.88861 9.31821,-5.65635 16.62068,-14.04863 21.65489,-23.70391 M 64.983933,45.910437 C 64.954073,56.82275 57.011273,62.206872 46.99938,62.206872 48.62687,55.891263 58.986011,47.826378 64.983933,45.910437 m 63.129467,4.814858 v 40.741099 h -4.77142 l 0.36705,-14.074212 V 50.725295 h 4.40437 m -55.054762,8.148216 h 9.175793 V 54.42903 c -1.835896,0 -7.586185,-0.950754 -8.798481,0.593707 -0.711683,0.906669 -0.377312,2.76669 -0.377312,3.850774 m 96.162302,-4.074116 0.36704,4.074116 h 9.17579 V 54.42903 l -9.54283,0.370365 M 90.676159,74.799571 c 1.421519,3.427065 3.774915,6.549312 6.272566,9.259338 1.218551,1.322241 3.771625,2.995227 4.244365,4.798948 0.73883,2.81706 -5.724967,2.844465 -7.213648,2.5715 C 86.613848,90.080451 82.989038,78.427374 90.676159,74.799571 M 57.27627,80.888143 c -17.948881,2.851132 -20.53983,29.366207 -2.936251,35.012187 2.856897,0.91628 6.211708,1.06926 9.175786,0.58853 22.455377,-3.64117 16.125549,-39.15297 -6.239535,-35.600717 m 1.101089,4.388949 c 16.801982,-2.207445 20.924121,24.794278 4.037348,26.862088 -2.832378,0.34667 -5.871874,0.12556 -8.441727,-1.1826 -11.687057,-5.94967 -8.43923,-23.991693 4.404379,-25.679488 m 81.481051,10.633792 v 6.296346 H 128.1134 c 7.2e-4,5.24746 2.98176,4.44449 7.34062,4.44449 l -0.58835,5.54524 -3.81603,0.38074 h -9.90985 l -4.18306,-0.38074 -0.58836,-5.54524 c 4.35889,0 7.3399,0.80297 7.34066,-4.44451 h -8.44175 l -3.29299,-0.59367 -0.37732,-5.332298 28.26144,-0.370358 M 86.638812,119.03813 c -13.553758,1.99112 -10.569047,22.47834 2.936241,20.46535 12.715817,-1.8952 9.736633,-22.32721 -2.936241,-20.46535 m -0.367033,4.79672 c 7.307971,-1.69152 10.282023,9.34821 2.936251,11.13822 -7.109769,1.73224 -10.20421,-9.45601 -2.936251,-11.13822 m 45.511941,2.81704 c -2.11887,5.51893 -11.80889,13.02863 -17.61753,14.07421 -2.11593,-11.01047 6.88845,-20.36944 17.61753,-14.07421 z"
       id="path301" />
  </g>
</svg>
