<?xml version="1.0" encoding="UTF-8" standalone="no"?>
<!-- Created with Inkscape (http://www.inkscape.org/) -->

<svg
   width="180"
   height="180"
   viewBox="0 0 180 180"
   version="1.1"
   id="svg5"
   inkscape:export-filename="icon-start.svg"
   inkscape:export-xdpi="96"
   inkscape:export-ydpi="96"
   xmlns:inkscape="http://www.inkscape.org/namespaces/inkscape"
   xmlns:sodipodi="http://sodipodi.sourceforge.net/DTD/sodipodi-0.dtd"
   xmlns="http://www.w3.org/2000/svg"
   xmlns:svg="http://www.w3.org/2000/svg">
  <sodipodi:namedview
     id="namedview7"
     pagecolor="#ffffff"
     bordercolor="#000000"
     borderopacity="0.25"
     inkscape:showpageshadow="2"
     inkscape:pageopacity="0.0"
     inkscape:pagecheckerboard="0"
     inkscape:deskcolor="#d1d1d1"
     inkscape:document-units="px"
     showgrid="false"
     inkscape:zoom="3.1584103"
     inkscape:cx="1.1081524"
     inkscape:cy="68.863757"
     inkscape:window-width="1920"
     inkscape:window-height="991"
     inkscape:window-x="-9"
     inkscape:window-y="-9"
     inkscape:window-maximized="1"
     inkscape:current-layer="layer1" />
  <defs
     id="defs2" />
  <g
     inkscape:label="Camada 1"
     inkscape:groupmode="layer"
     id="layer1">
    <path
       style="fill:#a7d8fd;stroke:none;stroke-width:0.377684"
       d="m 29.319687,20.307948 c -3.537167,1.388849 -1.332018,6.879057 2.232879,5.479317 3.537167,-1.388823 1.332048,-6.879063 -2.232879,-5.479317 m 108.773263,0 c -3.53703,1.388837 -1.3321,6.879094 2.23287,5.479317 3.53702,-1.388823 1.3321,-6.879052 -2.23287,-5.479317 m 9.80319,91.495622 c 1.48694,1.03411 2.97464,2.81074 4.9099,2.89949 3.22542,0.14843 9.8538,-7.34181 11.15266,-10.0755 1.74603,-3.67525 -2.37224,-12.062505 -3.3614,-15.862767 -0.34482,-1.324543 -1.24485,-3.164625 -0.80711,-4.53222 0.99709,-3.114392 5.62033,-6.146068 7.71383,-8.686756 6.27222,-7.611105 10.05889,-16.708401 11.41138,-26.437945 0.34218,-2.460577 1.31434,-7.605213 -0.32934,-9.714622 -1.76229,-2.261428 -6.02257,-1.032702 -8.40651,-0.869882 -8.77136,0.599046 -17.29722,3.942764 -24.54952,8.831293 -1.76266,1.188158 -6.59136,6.724906 -8.68524,5.667615 -2.86512,-1.446723 -5.35067,-5.386883 -7.9329,-7.439751 C 122.9017,40.724968 116.07656,37.074529 108.6169,34.765477 76.255725,24.748518 39.624822,44.642468 32.107455,78.189614 c -1.950058,8.702238 -2.310753,17.67792 -0.45873,26.437946 0.846164,4.00233 3.782396,8.78495 3.922597,12.73365 0.08314,2.34278 -2.932691,5.9255 -3.96135,8.03903 -3.794868,7.7973 -9.982558,20.77266 -3.182901,28.63833 7.202708,8.33249 21.808805,1.59194 29.580054,-2.29368 2.190573,-1.09529 5.339334,-3.75192 7.771238,-3.94454 2.184909,-0.17336 5.238493,1.86765 7.336152,2.51765 4.711622,1.45975 9.797145,2.42247 14.729709,2.63851 20.305106,0.88906 40.097306,-8.36082 52.009496,-24.91249 3.31078,-4.59981 7.18658,-10.52796 8.04242,-16.24045 m -15.1074,-53.631258 c -4.52202,-1.273669 -9.06217,-2.491664 -13.59666,-3.719744 -1.66483,-0.450881 -3.95322,-1.513608 -5.66527,-0.904254 -2.34316,0.833931 -4.33016,3.666604 -6.04296,5.37937 -1.55569,1.555681 -4.8914,3.862581 -4.35168,6.420642 0.87963,4.17002 8.19387,9.129776 11.15001,12.085917 -0.95478,1.36231 -3.12422,3.039987 -2.66986,4.909904 0.35994,1.479769 2.53503,2.518026 2.16716,4.154536 -0.61902,2.752944 -4.12092,6.017275 -5.44659,8.686752 -3.02904,6.098105 -2.07047,12.355215 -7.26969,17.060025 -7.282894,6.59023 -14.404901,13.1476 -22.28341,19.05686 -3.226942,2.4202 -9.127138,8.52699 -13.218975,8.90883 -3.370079,0.31461 -8.601389,-5.02661 -10.952859,-7.04118 C 43.849984,123.95295 37.473637,109.97067 36.51289,95.940806 33.641157,54.004935 80.717693,24.138858 117.30366,45.01018 c 5.81181,3.315434 11.746,7.509434 15.48508,13.162132 m 40.41229,-13.974343 c -0.0159,23.798304 -22.14405,39.517553 -37.39081,54.764321 -4.60964,-3.246961 -8.47789,-8.100214 -12.46361,-12.085923 -1.12738,-1.127392 -4.07635,-3.159713 -4.07635,-4.909904 0,-1.439735 2.0278,-2.860965 2.9433,-3.776849 l 8.68675,-8.686756 c 7.47892,-7.478914 14.50538,-15.963945 24.17184,-20.674775 5.79331,-2.823305 11.81889,-3.832631 18.12888,-4.630114 m -20.01731,9.618727 c -11.16058,2.10484 -8.12286,19.732681 3.02148,17.77665 11.91785,-2.091998 8.77929,-20.002192 -3.02148,-17.77665 M 7.3973507,59.501387 C -4.1039083,61.995618 -0.20543083,79.649365 11.1742,77.181195 22.67413,74.686963 18.760453,57.036652 7.3973507,59.501387 M 128.63421,63.082216 118.8144,73.279711 h -0.37769 l -8.30906,-8.309069 c 1.17572,-1.669371 3.21749,-4.452528 5.28758,-4.994129 3.49586,-0.914374 9.68612,2.376393 13.21898,3.105703 m 25.31206,-3.16991 c 3.63333,-1.347581 5.53271,4.199856 1.87408,5.460948 -3.47849,1.19915 -5.23132,-4.215719 -1.87408,-5.460948 M 8.5362174,65.517908 C 12.250562,64.589179 13.724894,70.299019 10.035324,71.221703 6.3209791,72.150432 4.846647,66.440591 8.5362174,65.517908 M 154.31678,89.142477 c 1.76228,4.603978 6.51544,15.713963 -1.13306,17.620513 -1.86953,0.46606 -8.64445,-6.30885 -8.17838,-8.17839 0.74933,-3.006374 6.83081,-7.694575 9.31144,-9.442123 M 127.12346,99.33997 c -5.28078,3.60727 -9.65627,5.64715 -15.86276,7.17602 0.18053,-4.18967 1.83215,-8.587428 4.10355,-12.085926 0.70211,-1.080934 1.72677,-2.923281 3.07813,-3.268485 2.37791,-0.608071 7.77918,6.244264 8.68108,8.178391 m 4.53222,3.77686 c 1.08925,1.08508 2.44741,2.92478 4.15454,2.87908 2.75257,-0.0733 5.25511,-4.32977 7.09594,0.52008 0.60392,1.59194 -0.76972,4.16284 -1.31547,5.66527 -1.99002,5.47719 -5.0523,10.63372 -8.77212,15.1074 -13.88973,16.70538 -39.834424,25.38307 -60.459427,16.24045 l 8.309072,-6.37267 14.729709,-11.86271 13.596656,-12.3469 9.81982,-2.16111 12.84128,-7.66889 m -92.155114,20.77266 c 4.430616,7.95065 12.066654,15.58668 20.017293,20.01731 v 0.37768 c -6.949026,2.99428 -16.537304,9.84624 -24.548037,6.9445 -3.298932,-1.195 -3.646135,-5.07723 -3.177692,-8.07756 0.989192,-6.33603 3.540491,-14.28366 7.708436,-19.26193 m 125.785694,15.76683 c -3.53702,1.38875 -1.3321,6.87916 2.23287,5.47946 3.53702,-1.38874 1.3321,-6.87915 -2.23287,-5.47946 m -54.38663,34.74703 c -3.53702,1.38874 -1.33209,6.87914 2.23288,5.47944 3.53702,-1.38874 1.33209,-6.87915 -2.23288,-5.47944 z"
       id="path584" />
  </g>
</svg>
