<?xml version="1.0" encoding="UTF-8" standalone="no"?>
<!-- Created with Inkscape (http://www.inkscape.org/) -->

<svg
   width="180"
   height="180"
   viewBox="0 0 180 180"
   version="1.1"
   id="svg5"
   inkscape:export-filename="icon-alienflag.svg"
   inkscape:export-xdpi="96"
   inkscape:export-ydpi="96"
   xmlns:inkscape="http://www.inkscape.org/namespaces/inkscape"
   xmlns:sodipodi="http://sodipodi.sourceforge.net/DTD/sodipodi-0.dtd"
   xmlns="http://www.w3.org/2000/svg"
   xmlns:svg="http://www.w3.org/2000/svg">
  <sodipodi:namedview
     id="namedview7"
     pagecolor="#ffffff"
     bordercolor="#000000"
     borderopacity="0.25"
     inkscape:showpageshadow="2"
     inkscape:pageopacity="0.0"
     inkscape:pagecheckerboard="0"
     inkscape:deskcolor="#d1d1d1"
     inkscape:document-units="px"
     showgrid="false"
     inkscape:zoom="3.1584103"
     inkscape:cx="1.1081524"
     inkscape:cy="68.863757"
     inkscape:window-width="1920"
     inkscape:window-height="991"
     inkscape:window-x="-9"
     inkscape:window-y="-9"
     inkscape:window-maximized="1"
     inkscape:current-layer="layer1" />
  <defs
     id="defs2" />
  <g
     inkscape:label="Camada 1"
     inkscape:groupmode="layer"
     id="layer1">
    <path
       style="fill:#a6d7fd;stroke:none;stroke-width:0.262528"
       d="m 80.529495,121.60035 c -15.360027,0.31714 -31.607901,6.92445 -43.579748,16.33218 -3.589027,2.82033 -14.383202,10.19974 -7.601992,15.22375 2.22682,1.64973 5.775684,0.99761 8.389582,0.99761 h 20.214688 55.131025 17.85193 c 2.88649,0 6.07227,0.38042 8.92598,-0.0559 3.46117,-0.52927 5.12219,-4.54489 3.69639,-7.55741 -1.98366,-4.19102 -7.8874,-7.83465 -11.57226,-10.46414 -13.40603,-9.56653 -29.78623,-14.60262 -46.205027,-14.73861 v -28.6156 h 16.276767 c 1.91332,0 4.88883,0.100558 4.88883,-2.625293 0,-2.725833 -2.97551,-2.625275 -4.88883,-2.625275 H 85.780063 V 36.016043 l 43.842277,-0.0036 15.7517,-0.258699 8.13839,0.262531 -7.6162,18.114478 -2.81195,7.613322 3.07448,8.138384 7.35367,17.589426 h -22.05239 c -2.03486,0 -6.80737,-0.111315 -5.53726,3.41182 0.97161,2.69539 5.14373,1.838758 7.37494,1.838758 h 17.58944 c 2.62895,0 5.45507,0.215532 7.02919,-2.366704 1.81827,-2.982065 0.01,-6.074919 -1.14935,-8.922042 -1.82219,-4.47612 -3.75258,-8.908646 -5.56455,-13.388961 -0.7616,-1.882598 -2.08841,-4.012747 -2.35435,-6.03815 -0.2376,-1.80908 1.32602,-4.137978 1.98628,-5.775629 1.94848,-4.832101 4.04978,-9.60235 5.98592,-14.439073 0.94982,-2.372101 2.56333,-4.991534 1.65158,-7.613332 -2.0165,-5.798837 -13.03796,-3.675396 -17.82334,-3.675396 H 85.780063 c 0,-2.222416 0.61589,-5.537235 -0.264887,-7.602802 -0.629286,-1.475607 -2.568585,-2.059497 -3.906956,-1.128309 -1.742405,1.21203 -1.078725,4.530099 -1.078725,6.368347 V 46.254851 121.60055 M 55.851801,33.793446 c -2.960272,0.648153 -3.343838,3.770412 -4.975974,5.842258 -1.970988,2.501747 -9.083414,3.733471 -5.865694,8.452899 0.369796,0.542125 0.858389,0.966628 1.391667,1.341784 1.289271,0.906506 2.959131,1.377752 4.099954,2.476427 2.192609,2.112046 2.781468,7.16625 6.925219,6.28074 2.909612,-0.621669 3.38215,-3.815325 4.975962,-5.838636 2.008084,-2.548635 7.652448,-2.89333 6.367892,-7.406719 -0.869219,-3.053973 -4.30704,-3.034305 -6.188583,-5.090535 -2.046927,-2.237168 -2.611113,-6.960218 -6.730443,-6.058218 m 1.050112,6.685766 c 1.108923,2.66259 2.584857,4.13482 5.250569,5.250569 l -3.101773,2.202611 -2.148796,3.310488 H 56.376852 C 54.98099,48.590292 53.570161,47.60397 51.12628,45.992311 l 3.326509,-2.18652 2.449124,-3.326579 m 58.018837,1.161528 c -2.83399,0.373181 -5.58871,0.812291 -8.1384,2.215899 -10.76314,5.925014 -11.10496,18.610124 -4.71895,27.863464 3.05267,4.423343 8.85511,11.146706 14.95756,10.424224 4.5646,-0.540278 8.53377,-4.166064 11.35332,-7.536409 7.28148,-8.703607 10.07717,-22.024301 -0.58964,-29.550471 -1.76419,-1.24483 -3.6951,-2.130476 -5.77564,-2.700633 -2.23778,-0.613268 -4.77304,-1.020979 -7.08825,-0.716074 m 0.78758,5.215129 c 7.39122,-0.787036 14.30072,5.365197 14.02059,12.787933 -0.16302,4.31858 -2.65574,8.360733 -5.39154,11.55125 -1.81172,2.112565 -4.8124,5.477395 -7.84147,5.640951 -3.69719,0.199778 -7.52696,-4.624186 -9.47754,-7.216124 -5.12509,-6.809468 -6.14631,-16.862731 2.6518,-21.272422 1.90726,-0.956134 3.94001,-1.268174 6.03816,-1.491588 m -7.34975,10.075224 c -1.68334,0.490667 -2.37327,2.549672 -1.38142,3.997784 1.04696,1.52843 4.50341,3.345919 6.3579,2.743672 1.55208,-0.503791 2.16193,-2.378499 1.33916,-3.754931 -0.90204,-1.508752 -4.54541,-3.502393 -6.31564,-2.986525 m 14.438,-0.0073 c -1.56965,0.424767 -4.18076,1.75815 -4.94077,3.248528 -1.15434,2.263515 1.26643,4.103575 3.3656,3.503958 1.42657,-0.407701 3.94266,-1.634757 4.64204,-2.994124 1.07664,-2.092615 -0.84219,-4.360345 -3.06687,-3.758362 M 35.637104,85.2551 c -2.807397,0.73192 -3.155223,3.940284 -4.828004,5.864101 -2.083505,2.39611 -10.355129,5.153415 -4.836942,9.454169 1.397919,1.08925 3.307339,1.54841 4.574594,2.78859 2.232044,2.18449 2.880542,7.41879 7.190585,6.17573 2.819256,-0.81306 3.076954,-4.10281 4.827996,-5.99616 1.291537,-1.39638 3.42022,-1.82535 4.873993,-3.04612 4.982277,-4.182895 -2.231462,-6.853576 -4.614484,-8.990814 -2.391596,-2.145128 -2.750871,-7.406455 -7.187738,-6.249496 m 80.071476,2.108097 c -3.33436,0.862665 -1.91516,5.830772 1.31134,4.981239 3.10386,-0.817005 1.86159,-5.802168 -1.31134,-4.981239 m -79.021364,4.571144 5.513099,5.513093 c -2.421374,1.427899 -4.100718,2.582226 -5.250568,5.250586 h -0.525061 c -1.489922,-2.55021 -2.735781,-3.711363 -5.250569,-5.250586 l 5.513099,-5.513093 M 138.81084,148.90306 H 32.749281 c 4.919534,-6.98378 14.652958,-12.32757 22.314938,-15.71497 20.792526,-9.19296 44.566591,-8.40406 64.844571,1.7361 6.50675,3.25378 14.53067,8.03969 18.90205,13.97887 m -35.95512,-14.50679 c -3.05611,1.23361 -0.89261,6.02107 2.085,4.67562 3.06343,-1.38458 0.99998,-5.92081 -2.085,-4.67562 m -36.764247,0.74977 c -3.264546,0.70041 -2.292931,5.67296 1.048009,5.01954 3.245643,-0.63505 2.128055,-5.70108 -1.048009,-5.01954 m 21.002288,3.71425 c -3.278989,1.22521 -1.373292,6.14631 1.825362,4.78957 2.892274,-1.2268 1.135434,-5.89587 -1.825362,-4.78957 z"
       id="path383" />
  </g>
</svg>
