<?xml version="1.0" encoding="UTF-8"?>
<!-- Created with Inkscape (http://www.inkscape.org/) -->
<svg width="231" height="31" version="1.1" viewBox="0 0 61.119 8.2021" xmlns="http://www.w3.org/2000/svg">
 <g fill="#fff">
  <path d="m14.511 8.2094c-0.75219-0.11079-1.3871-0.36745-1.7903-0.72378-0.29646-0.26196-0.57296-0.69649-0.73555-1.156l-0.12584-0.35563-0.014251-2.5146c-0.0098-1.7427 0.0011-2.5674 0.03636-2.6868 0.12386-0.42173 0.50904-0.65081 1.0435-0.62061 0.40289 0.022771 0.6359 0.16435 0.79189 0.4812l0.1084 0.22018 0.04576 4.9834 0.12506 0.23719c0.21634 0.41031 0.58476 0.60861 1.1307 0.60861 0.59722 0 0.96339-0.19688 1.1777-0.6332l0.12685-0.25832 0.02288-2.5603c0.02067-2.3142 0.03049-2.5742 0.10196-2.7048 0.17394-0.31788 0.54129-0.47307 0.91588-0.38692 0.28907 0.066479 0.43193 0.16625 0.53925 0.37661 0.08477 0.16615 0.08881 0.28933 0.08881 2.706 0 2.3525-0.0062 2.5564-0.08833 2.8773-0.12576 0.49173-0.32519 0.85569-0.66796 1.219-0.3499 0.37091-0.82783 0.64334-1.3734 0.78287-0.33968 0.086876-1.1812 0.14943-1.4593 0.10847zm1.4173-0.32879c0.95884-0.25572 1.6402-0.92348 1.8802-1.8427 0.06518-0.24966 0.07927-0.64098 0.09628-2.6737 0.02136-2.5541 0.01241-2.6817-0.20214-2.8806-0.22999-0.21315-0.65976-0.18761-0.88556 0.052612l-0.11156 0.1187-0.02374 2.5681c-0.02595 2.8043-0.01974 2.7397-0.30185 3.1474-0.41547 0.60041-1.555 0.72537-2.2191 0.24335-0.15701-0.11396-0.25321-0.23619-0.36575-0.4647l-0.15271-0.31006-0.022876-2.4928c-0.021902-2.3899-0.026657-2.499-0.1143-2.6445-0.13897-0.23063-0.34592-0.33748-0.65934-0.34044-0.45939-0.004313-0.74694 0.25081-0.80482 0.71412-0.01651 0.1321-0.02078 1.2369-0.0095 2.4551 0.01738 1.8729 0.03232 2.2602 0.09678 2.5081 0.27707 1.0657 1.0505 1.7411 2.2012 1.9223 0.39223 0.061736 1.2227 0.020074 1.5988-0.080223zm-15.202 0.11533c-0.23728-0.077828-0.56471-0.42627-0.63278-0.67337-0.043056-0.15638-0.053474-0.94511-0.043384-3.2952l0.013219-3.0897 0.13856-0.22498c0.099636-0.16176 0.20882-0.26352 0.38861-0.36213l0.25005-0.13716 1.0515-0.015109c1.4717-0.021153 2.1086 0.071897 2.766 0.40417 0.40067 0.20251 0.66149 0.46342 0.85533 0.85562 0.15815 0.32 0.17294 0.38386 0.18894 0.81601 0.024071 0.65051-0.085338 0.98237-0.44501 1.3496l-0.25637 0.26179 0.19713 0.10343c0.27105 0.14222 0.57799 0.49773 0.69933 0.81002 0.14225 0.36608 0.17319 1.0967 0.063588 1.5016-0.2125 0.78501-0.88405 1.3592-1.8973 1.6222-0.35279 0.091566-0.51716 0.10201-1.783 0.11327-0.95771 0.0085314-1.4445-0.0037736-1.5545-0.040092zm2.4381-0.17144c0.63232-0.051371 1.2323-0.20126 1.607-0.40155 0.32033-0.17121 0.73607-0.59565 0.87002-0.88823 0.15-0.32765 0.20795-0.76934 0.15562-1.1861-0.075705-0.60289-0.36942-1.0178-0.88887-1.2556-0.34788-0.15926-0.38791-0.22396-0.20057-0.32421 0.29768-0.15929 0.58277-0.46614 0.68486-0.73714 0.12482-0.33134 0.1349-0.89223 0.022442-1.2497-0.21996-0.6993-0.92277-1.1702-1.9602-1.3134-0.48732-0.067278-2.3949-0.064823-2.5959 0.003234-0.24122 0.081814-0.39972 0.21208-0.51077 0.41976l-0.10183 0.19045v3.0175c0 2.3662 0.012903 3.0538 0.059697 3.1859 0.080686 0.22765 0.37003 0.48199 0.58907 0.51782 0.095792 0.015649 0.20504 0.03502 0.24276 0.043006 0.16642 0.035236 1.5017 0.020883 2.0266-0.021746zm-1.1436-1.005c-0.179-0.072118-0.1973-0.18206-0.1973-1.1854 0-1.2466-0.065123-1.1631 0.88487-1.1353 0.77112 0.022502 0.91263 0.061601 1.2165 0.33614 0.24078 0.21753 0.3407 0.52002 0.31063 0.94033-0.054271 0.75852-0.58828 1.0948-1.7262 1.0871-0.21374-0.0016172-0.43356-0.02072-0.48849-0.042899zm1.5247-0.34639c0.33587-0.16785 0.47254-0.40138 0.47254-0.80742 0-0.4449-0.19374-0.73903-0.57551-0.87372-0.22407-0.079057-1.0048-0.14343-1.2291-0.10135l-0.16134 0.030271v0.92755c0 0.51015 0.015434 0.94354 0.034267 0.96307 0.018892 0.019533 0.29484 0.026387 0.61329 0.015217 0.52631-0.018454 0.60328-0.03243 0.84581-0.15363zm-1.6305-3.0822c-0.084846-0.084854-0.091444-0.1524-0.091444-0.93724 0-1.0715-0.02822-1.0287 0.67852-1.0287 0.2957 0 0.58241 0.026118 0.71071 0.064726 0.47056 0.14162 0.71184 0.46835 0.71184 0.96396 0 0.4956-0.24128 0.82234-0.71184 0.96396-0.12831 0.038636-0.41501 0.064726-0.71071 0.064726-0.43468 0-0.50689-0.011227-0.58708-0.091436zm1.2399-0.18538c0.35562-0.093541 0.5497-0.359 0.5497-0.75186 0-0.39335-0.19536-0.66011-0.5497-0.75059-0.25644-0.065486-0.8067-0.10725-0.96242-0.073046l-0.1403 0.030811v0.7931c0 0.71586 0.00773 0.7954 0.080007 0.81671 0.11138 0.032862 0.82229-0.012411 1.0227-0.06513zm4.7786 4.7795c-0.46989-0.12908-0.84511-0.47805-0.99832-0.92849-0.077733-0.22852-0.11201-6.0274-0.037126-6.2838 0.12305-0.42142 0.50864-0.65082 1.0432-0.62061 0.40288 0.022771 0.6359 0.16435 0.79189 0.48119l0.1084 0.22019 0.02287 2.8249c0.01981 2.4443 0.03211 2.8307 0.09143 2.8682 0.03772 0.023851 0.52125 0.043654 1.0751 0.044033 0.88459 5.396e-4 1.0258 0.010793 1.1658 0.084093 0.46962 0.24583 0.46834 1.0685-0.0021 1.3117-0.1806 0.09339-2.9205 0.092267-3.2612-0.00162zm3.0385-0.15988c0.22087-0.061353 0.32172-0.18406 0.34882-0.42439 0.02519-0.22348-0.0678-0.45576-0.2137-0.53385-0.0525-0.028059-0.48298-0.047053-1.0671-0.047053-1.0317 0-1.228-0.029517-1.3252-0.19911-0.04208-0.073419-0.06192-0.81035-0.07905-2.9326-0.022707-2.8194-0.02341-2.8354-0.12313-2.9946-0.05515-0.088009-0.14773-0.1893-0.20574-0.2251-0.27062-0.16698-0.78182-0.13786-0.98988 0.056399-0.26958 0.25169-0.25856 0.11207-0.25856 3.2776 0 3.2081-0.00562 3.1409 0.29643 3.5578 0.16633 0.22961 0.55302 0.42348 0.93056 0.46655 0.4435 0.050615 2.5031 0.049374 2.6866-0.00162zm9.2764 0.16383c-0.57775-0.16034-0.92083-0.5277-1.0492-1.1234-0.03922-0.18205-0.05018-0.97706-0.03972-2.8803 0.01273-2.3113 0.02358-2.6526 0.08999-2.8257 0.1808-0.47116 0.51695-0.76705 1.0204-0.89818 0.21812-0.056815 0.56043-0.070856 1.7273-0.070856 1.3788 0 1.4649 0.004852 1.6397 0.094118 0.33646 0.17165 0.45151 0.62039 0.25763 1.0049-0.17305 0.34317-0.25496 0.36375-1.4516 0.36461-0.73677 5.342e-4 -1.0611 0.017159-1.143 0.058515-0.11394 0.057592-0.11434 0.060064-0.12683 0.79379-0.01247 0.73177-0.01193 0.73618 0.09145 0.76388 0.05719 0.015325 0.57748 0.028113 1.1562 0.028491 1.1801 5.395e-4 1.2846 0.023958 1.4615 0.32546 0.12624 0.21506 0.12478 0.63065-0.0027 0.80156-0.23305 0.31215-0.23015 0.31151-1.5198 0.33662l-1.174 0.02288-0.01252 0.81815c-0.0109 0.71314-0.0027 0.82903 0.06423 0.90295 0.07057 0.077989 0.16269 0.084804 1.1459 0.084804 1.2466 0 1.3466 0.024984 1.5179 0.37866 0.12376 0.25565 0.12183 0.46564-0.0065 0.72035-0.18225 0.36141-0.19868 0.36447-1.9316 0.35985-1.0546-0.0027-1.5707-0.021207-1.7145-0.061116zm3.1592-0.16383c0.2157-0.059917 0.31756-0.17888 0.3481-0.40655 0.02936-0.21899-0.05105-0.44224-0.1875-0.5205-0.06509-0.037341-0.46195-0.062859-1.2167-0.078265-1.195-0.02439-1.266-0.037989-1.3683-0.26257-0.05229-0.11471-0.07007-1.6866-0.02055-1.8156 0.06997-0.18235 0.23962-0.20779 1.3859-0.20779h1.0988l0.14236-0.12721c0.29717-0.26552 0.19701-0.77285-0.17284-0.87555-0.098613-0.027358-0.62752-0.048402-1.2224-0.04851-1.3642-3.347e-4 -1.2602 0.079823-1.2602-0.97184v-0.77277l0.13364-0.13364 0.13364-0.13364 1.0208-2.537e-4c1.0588-2.643e-4 1.2942-0.030056 1.4308-0.18103 0.11439-0.1264 0.143-0.45635 0.05441-0.62765-0.12437-0.24051-0.1967-0.24959-1.8638-0.23402-1.4352 0.013382-1.5391 0.019966-1.733 0.10973-0.2611 0.12086-0.49292 0.35153-0.60271 0.59973-0.15529 0.35106-0.18146 0.87562-0.1631 3.27 0.01932 2.5242 0.02294 2.5589 0.30535 2.9488 0.16858 0.23271 0.52953 0.41495 0.92276 0.46589 0.42436 0.054969 2.6392 0.057521 2.8346 0.00323z" stroke-width=".045719"/>
  <path d="m39.117 7.989c-1.5544-0.26587-2.6953-1.3189-3.0717-2.8351-0.14543-0.58581-0.14543-1.563 0-2.1488 0.38149-1.5367 1.5259-2.579 3.1174-2.8393 0.59668-0.097587 10.881-0.093708 11.443 0.004313 1.6187 0.28228 2.7302 1.3227 3.1263 2.9264 0.10954 0.44354 0.10954 1.5224 0 1.9659-0.39604 1.6036-1.5076 2.6441-3.1263 2.9264-0.33302 0.058073-1.1913 0.067526-5.7687 0.063538-4.1488-0.00377-5.4558-0.018076-5.7203-0.063339zm0.97328-1.5436c-0.24209-0.35536-0.45804-0.84663-0.57173-1.3006-0.14343-0.57276-0.14343-1.5579 0-2.1306 0.11425-0.45622 0.32977-0.94545 0.57542-1.3061l0.16721-0.24551-0.4235 0.021423c-0.57571 0.029084-0.87065 0.14773-1.2502 0.5028-0.52247 0.48875-0.79472 1.2057-0.79472 2.0927 0 0.8182 0.24224 1.5172 0.68976 1.9904 0.41173 0.43535 0.8137 0.60891 1.4201 0.61315l0.35123 0.0027-0.16352-0.24003zm6.8478 0.16741c0.64692-0.18917 1.1419-0.72072 1.4012-1.5047 0.10841-0.32784 0.12095-0.43447 0.12095-1.0287 0-0.59567-0.01235-0.7004-0.12206-1.0323-0.2252-0.68141-0.60708-1.1412-1.1689-1.4074l-0.30282-0.14348h-1.9888c-1.9808 0-1.9899 4.317e-4 -2.2547 0.1073-0.40197 0.16218-0.8105 0.56741-1.0386 1.0302-0.22459 0.45569-0.31691 0.87683-0.31691 1.4457 0 0.8182 0.24223 1.5172 0.68976 1.9904 0.28377 0.30005 0.4632 0.417 0.8099 0.52788 0.23156 0.074055 0.45262 0.083072 2.0908 0.085268 1.544 0.00216 1.8709-0.00895 2.0802-0.070154zm3.4747 0c0.64692-0.18917 1.1419-0.72072 1.4012-1.5047 0.10842-0.32784 0.12096-0.43447 0.12096-1.0287 0-0.59567-0.01235-0.7004-0.12207-1.0323-0.22556-0.68248-0.6089-1.1435-1.1689-1.4057-0.25374-0.11881-0.37179-0.14482-0.72843-0.16048l-0.42561-0.018671 0.22707 0.34785c0.4454 0.68228 0.61978 1.3208 0.61978 2.2693 0 0.94598-0.17454 1.5873-0.61614 2.2637l-0.22344 0.34228h0.33367c0.18352 0 0.44543-0.0327 0.582-0.072615zm-23.209 1.336c-0.17808-0.080735-0.32893-0.2705-0.3629-0.45653-0.01446-0.079171 0.01252-1.5479 0.05994-3.2639l0.08623-3.1199 0.13364-0.26131c0.1532-0.29957 0.4275-0.53351 0.71754-0.61198 0.45694-0.12362 1.0658 0.079646 1.3125 0.43816 0.07581 0.11019 0.41236 0.98879 0.82374 2.1505 0.92293 2.6063 0.8626 2.452 0.95187 2.4348 0.0552-0.010629 0.26656-0.56231 0.78488-2.0485 0.39014-1.1187 0.74768-2.1338 0.79452-2.2559 0.16981-0.44255 0.51834-0.7062 0.99011-0.74898 0.5137-0.046568 0.92883 0.20563 1.1466 0.69664 0.09844 0.22193 0.10376 0.31791 0.18234 3.2918 0.05695 2.1552 0.06699 3.1166 0.03389 3.2433-0.08224 0.315-0.43994 0.57374-0.79319 0.57374-0.17766 0-0.43326-0.09592-0.57629-0.21628-0.26562-0.2235-0.27643-0.29176-0.34228-2.1606-0.033239-0.94295-0.061312-1.8019-0.062406-1.9088-0.0017-0.15762-0.01792-0.19431-0.08629-0.19431-0.06966 0-0.20928 0.34727-0.80419 2.0002-0.39595 1.1001-0.76434 2.0674-0.81866 2.1495-0.12189 0.18423-0.41083 0.33079-0.65213 0.33079-0.26944 0-0.57032-0.16993-0.68808-0.38862-0.05417-0.10058-0.41195-1.0624-0.79508-2.1374-0.57917-1.625-0.71094-1.9545-0.78162-1.9545-0.06918 0-0.08543 0.036207-0.08729 0.19431-0.0011 0.10687-0.02903 0.99983-0.06178 1.9844-0.06508 1.9578-0.06574 1.9618-0.35695 2.1788-0.15675 0.11684-0.55373 0.14894-0.74871 0.060543zm28.05 0.021423c-0.23302-0.075377-0.32672-0.15274-0.41169-0.33986-0.08224-0.18111-0.0866-0.34934-0.08755-3.3712-0.0011-3.4716 0-3.4854 0.26088-3.7956 0.36778-0.43709 1.1917-0.34257 1.6048 0.1841 0.09233 0.11771 0.79537 1.1126 1.5623 2.2108 0.92957 1.3311 1.4211 1.997 1.4744 1.9975 0.07502 5.396e-4 0.08001-0.12764 0.08001-2.0611 0-1.8077 0.0092-2.0812 0.07422-2.2183 0.20502-0.43205 0.84005-0.5126 1.187-0.15055l0.13327 0.13908 0.0123 3.3201c0.01078 2.8953 0.0033 3.3473-0.05837 3.5329-0.21718 0.6539-1.0729 0.80058-1.624 0.27836-0.12274-0.1163-0.86207-1.1229-1.6492-2.2453-0.78467-1.119-1.4492-2.0495-1.4768-2.0679-0.1492-0.099466-0.16445 0.098208-0.16462 2.1338 0 1.916-0.0043 2.0215-0.08927 2.1604-0.049 0.080358-0.13769 0.17795-0.1971 0.21688-0.13198 0.086483-0.47165 0.12745-0.63052 0.076063z"/>
 </g>
</svg>
